<svg xmlns="http://www.w3.org/2000/svg" version="1.1" xmlns:xlink="http://www.w3.org/1999/xlink" width="512" height="512" x="0" y="0" viewBox="0 0 64 64" style="enable-background:new 0 0 512 512" xml:space="preserve" class=""><g><g fill="#000"><path d="M8 2a6 6 0 0 0-6 6v6a6 6 0 0 0 6 6h1c0 7.732 6.268 14 14 14v1a6 6 0 0 0 6 6h6a6 6 0 0 0 6-6v-1h1c5.523 0 10 4.477 10 10h-2a6 6 0 0 0-6 6v6a6 6 0 0 0 6 6h6a6 6 0 0 0 6-6v-6a6 6 0 0 0-6-6c0-7.732-6.268-14-14-14h-1v-1a6 6 0 0 0-6-6h-6a6 6 0 0 0-6 6v1c-5.523 0-10-4.477-10-10h1a6 6 0 0 0 6-6V8a6 6 0 0 0-6-6zM8 44a6 6 0 0 0-6 6v6a6 6 0 0 0 6 6h6a6 6 0 0 0 6-6v-6a6 6 0 0 0-6-6zM50 2a6 6 0 0 0-6 6v6a6 6 0 0 0 6 6h6a6 6 0 0 0 6-6V8a6 6 0 0 0-6-6z" fill="#ffffff" opacity="1" data-original="#000000" class=""></path><path d="M32 2a9 9 0 1 0 0 18 9 9 0 0 0 0-18zM32 44a9 9 0 1 0 0 18 9 9 0 0 0 0-18z" fill="#ffffff" opacity="1" data-original="#000000" class=""></path></g></g></svg>