<svg xmlns="http://www.w3.org/2000/svg" version="1.1" xmlns:xlink="http://www.w3.org/1999/xlink" width="512" height="512" x="0" y="0" viewBox="0 0 682.667 682.667" style="enable-background:new 0 0 512 512" xml:space="preserve" class=""><g><defs><clipPath id="a" clipPathUnits="userSpaceOnUse"><path d="M0 512h512V0H0Z" fill="#ffffff" opacity="1" data-original="#000000"></path></clipPath><clipPath id="b" clipPathUnits="userSpaceOnUse"><path d="M0 512h512V0H0Z" fill="#ffffff" opacity="1" data-original="#000000"></path></clipPath><clipPath id="c" clipPathUnits="userSpaceOnUse"><path d="M0 512h512V0H0Z" fill="#ffffff" opacity="1" data-original="#000000"></path></clipPath></defs><g clip-path="url(#a)" transform="matrix(1.33333 0 0 -1.33333 0 682.667)"><path d="M7.5 495.998h101.75v-45H7.5Z" style="stroke-width:15;stroke-linecap:butt;stroke-linejoin:miter;stroke-miterlimit:22.926;stroke-dasharray:none;stroke-opacity:1" fill="none" stroke="#ffffff" stroke-width="15" stroke-linecap="butt" stroke-linejoin="miter" stroke-miterlimit="22.926" stroke-dasharray="none" stroke-opacity="" data-original="#000000" opacity="1" class=""></path><path d="M0 0v45h45M0-142.499v45h45M0 142.499v45h45" style="stroke-width:15;stroke-linecap:butt;stroke-linejoin:miter;stroke-miterlimit:22.926;stroke-dasharray:none;stroke-opacity:1" transform="translate(64.25 158.501)" fill="none" stroke="#ffffff" stroke-width="15" stroke-linecap="butt" stroke-linejoin="miter" stroke-miterlimit="22.926" stroke-dasharray="none" stroke-opacity="" data-original="#000000" opacity="1" class=""></path></g><path d="M0 0h101.75v-67.499l-45-45H0Z" style="stroke-width:15;stroke-linecap:butt;stroke-linejoin:miter;stroke-miterlimit:22.926;stroke-dasharray:none;stroke-opacity:1" transform="matrix(1.33333 0 0 -1.33333 185.667 131.335)" fill="none" stroke="#ffffff" stroke-width="15" stroke-linecap="butt" stroke-linejoin="miter" stroke-miterlimit="22.926" stroke-dasharray="none" stroke-opacity="" data-original="#000000" opacity="1" class=""></path><path d="M0 0v45h45" style="stroke-width:15;stroke-linecap:butt;stroke-linejoin:miter;stroke-miterlimit:22.926;stroke-dasharray:none;stroke-opacity:1" transform="matrix(1.33333 0 0 -1.33333 261.333 281.333)" fill="none" stroke="#ffffff" stroke-width="15" stroke-linecap="butt" stroke-linejoin="miter" stroke-miterlimit="22.926" stroke-dasharray="none" stroke-opacity="" data-original="#000000" opacity="1" class=""></path><path d="M0 0v45h45M0 142.499v45h45" style="stroke-width:15;stroke-linecap:butt;stroke-linejoin:miter;stroke-miterlimit:22.926;stroke-dasharray:none;stroke-opacity:1" transform="matrix(1.33333 0 0 -1.33333 437 471.332)" fill="none" stroke="#ffffff" stroke-width="15" stroke-linecap="butt" stroke-linejoin="miter" stroke-miterlimit="22.926" stroke-dasharray="none" stroke-opacity="" data-original="#000000" opacity="1" class=""></path><g clip-path="url(#b)" transform="matrix(1.33333 0 0 -1.33333 0 682.667)"><path d="M0 0v45h45M0 142.499v45h45" style="stroke-width:15;stroke-linecap:butt;stroke-linejoin:miter;stroke-miterlimit:22.926;stroke-dasharray:none;stroke-opacity:1" transform="translate(459.5 158.501)" fill="none" stroke="#ffffff" stroke-width="15" stroke-linecap="butt" stroke-linejoin="miter" stroke-miterlimit="22.926" stroke-dasharray="none" stroke-opacity="" data-original="#000000" opacity="1" class=""></path></g><path d="M0 0h101.75v-67.499l-45-45H0Zm0-142.499h101.75v-67.499l-45-45H0Z" style="stroke-width:15;stroke-linecap:butt;stroke-linejoin:miter;stroke-miterlimit:22.926;stroke-dasharray:none;stroke-opacity:1" transform="matrix(1.33333 0 0 -1.33333 361.333 131.335)" fill="none" stroke="#ffffff" stroke-width="15" stroke-linecap="butt" stroke-linejoin="miter" stroke-miterlimit="22.926" stroke-dasharray="none" stroke-opacity="" data-original="#000000" opacity="1" class=""></path><g clip-path="url(#c)" transform="matrix(1.33333 0 0 -1.33333 0 682.667)"><path d="M0 0h101.75v-67.499l-45-45H0Zm0-142.499h101.75v-67.499l-45-45H0Z" style="stroke-width:15;stroke-linecap:butt;stroke-linejoin:miter;stroke-miterlimit:22.926;stroke-dasharray:none;stroke-opacity:1" transform="translate(402.75 413.499)" fill="none" stroke="#ffffff" stroke-width="15" stroke-linecap="butt" stroke-linejoin="miter" stroke-miterlimit="22.926" stroke-dasharray="none" stroke-opacity="" data-original="#000000" opacity="1" class=""></path><path d="M0 0h101.75v-67.499l-45-45H0Zm0 112.499v30h101.75V75l-45-45H0v67.5m0-239.999h101.75v-67.499l-45-45H0Z" style="stroke-width:15;stroke-linecap:butt;stroke-linejoin:miter;stroke-miterlimit:22.926;stroke-dasharray:none;stroke-opacity:1" transform="translate(7.5 271)" fill="none" stroke="#ffffff" stroke-width="15" stroke-linecap="butt" stroke-linejoin="miter" stroke-miterlimit="22.926" stroke-dasharray="none" stroke-opacity="" data-original="#000000" opacity="1" class=""></path><path d="M139.25 495.998H241v-45H139.25ZM271 495.998h101.75v-45H271Z" style="stroke-width:15;stroke-linecap:butt;stroke-linejoin:miter;stroke-miterlimit:22.926;stroke-dasharray:none;stroke-opacity:1" fill="none" stroke="#ffffff" stroke-width="15" stroke-linecap="butt" stroke-linejoin="miter" stroke-miterlimit="22.926" stroke-dasharray="none" stroke-opacity="" data-original="#000000" opacity="1" class=""></path><path d="M0 0h-28.375v45h101.75V0H45M30 0H15" style="stroke-width:15;stroke-linecap:butt;stroke-linejoin:miter;stroke-miterlimit:22.926;stroke-dasharray:none;stroke-opacity:1" transform="translate(431.125 450.998)" fill="none" stroke="#ffffff" stroke-width="15" stroke-linecap="butt" stroke-linejoin="miter" stroke-miterlimit="22.926" stroke-dasharray="none" stroke-opacity="" data-original="#000000" opacity="1" class=""></path></g><path d="M0 0h15m-278.5-142.499h15m380.249 284.998h15" style="stroke-width:15;stroke-linecap:butt;stroke-linejoin:miter;stroke-miterlimit:2.613;stroke-dasharray:none;stroke-opacity:1" transform="matrix(1.33333 0 0 -1.33333 447.001 361.333)" fill="none" stroke="#ffffff" stroke-width="15" stroke-linecap="butt" stroke-linejoin="miter" stroke-miterlimit="2.613" stroke-dasharray="none" stroke-opacity="" data-original="#000000" opacity="1" class=""></path></g></svg>